<svg xmlns="http://www.w3.org/2000/svg" viewBox="0 0 900 2000" preserveAspectRatio="xMidYMid meet">
<defs>
 <radialGradient id="bg" cx="78%" cy="10%" r="78%"><stop offset="0" stop-color="#4a3510"/><stop offset=".20" stop-color="#1b160b"/><stop offset=".52" stop-color="#090908"/><stop offset="1" stop-color="#020202"/></radialGradient>
 <linearGradient id="gold" x1="0" y1="0" x2="1" y2="1"><stop stop-color="#fff1a8"/><stop offset=".35" stop-color="#e4b93f"/><stop offset="1" stop-color="#8e6415"/></linearGradient>
 <radialGradient id="ray" cx="0" cy="0" r="1"><stop stop-color="#ffe9a0" stop-opacity=".68"/><stop offset="1" stop-color="#ffe9a0" stop-opacity="0"/></radialGradient>
 <filter id="blur"><feGaussianBlur stdDeviation="28"/></filter>
 <filter id="shadow"><feGaussianBlur stdDeviation="10"/></filter>
</defs>
<rect width="900" height="2000" fill="url(#bg)"/>
<ellipse cx="720" cy="80" rx="320" ry="300" fill="url(#ray)" filter="url(#blur)"/>
<g opacity=".38" fill="#f5cf67">
 <path d="M650 0 L710 0 L500 690 Z"/><path d="M750 0 L800 0 L585 650 Z"/><path d="M565 0 L605 0 L455 650 Z"/>
</g>
<g transform="translate(675 235)" fill="url(#gold)" stroke="#6e4b0d" stroke-width="7" stroke-linejoin="round" opacity=".82">
 <rect x="-25" y="-180" width="50" height="365" rx="11"/>
 <rect x="-155" y="-55" width="310" height="55" rx="11"/>
 <circle cx="0" cy="0" r="17" fill="#241a08" stroke="none"/>
</g>
<g transform="translate(450 1510) rotate(-4)" opacity=".38">
 <path d="M-330 135 Q-165 25 0 110 Q165 25 330 135 L330 385 Q160 285 0 370 Q-160 285-330 385 Z" fill="#d9c7a0" stroke="#8c6b35" stroke-width="11"/>
 <path d="M0 110 V370" stroke="#6f5328" stroke-width="8"/>
 <path d="M-285 165 Q-155 110-35 165 M-285 215 Q-155 160-35 215 M35 165 Q155 110 285 165 M35 215 Q155 160 285 215" fill="none" stroke="#6e5a38" stroke-width="6" opacity=".8"/>
</g>
<ellipse cx="450" cy="1680" rx="440" ry="170" fill="#000" opacity=".42" filter="url(#shadow)"/>
<rect y="1850" width="900" height="150" fill="#020202" opacity=".35"/>
</svg>